<svg xmlns="http://www.w3.org/2000/svg" viewBox="0 0 100 100" width="64" height="64">
  <rect width="100" height="100" rx="18" fill="#0A1A2A"/>
  <!-- Falcon head silhouette facing right -->
  <path fill="#FFFFFF" d="M 18 50 C 18 34, 30 22, 48 22 C 60 22, 70 27, 76 35 L 92 33 L 78 46 L 84 50 L 72 52 L 72 57 L 62 55 L 56 60 L 34 60 L 24 54 Z"/>
  <path fill="#FFFFFF" d="M 76 35 L 92 33 L 78 46 Z"/>
  <path fill="#0A1A2A" d="M 42 34 L 68 34 L 62 42 L 40 42 Z"/>
  <circle cx="62" cy="38" r="2.4" fill="#C8A25A"/>
  <!-- Gold mountain + lightning bolt -->
  <path fill="#C8A25A" d="M 20 86 L 42 56 L 50 66 L 58 50 L 52 66 L 64 64 L 44 90 L 48 78 L 36 82 Z"/>
</svg>
